<svg xmlns="http://www.w3.org/2000/svg" id="Layer_1" data-name="Layer 1" viewBox="0 0 512 512">
  <path d="M316.13,258.7c0,31.9-25.86,57.77-57.77,57.77s-57.77-25.86-57.77-57.77,25.86-57.77,57.77-57.77,57.77,25.86,57.77,57.77Z" fill="#e0e0d1" style="fill:#e0e0d1;" id="__0_"/>
  <path d="M256,512C114.84,512,0,397.16,0,256S114.84,0,256,0s256,114.84,256,256-114.84,256-256,256ZM256,15.22C123.23,15.22,15.22,123.23,15.22,256s108.01,240.78,240.78,240.78,240.78-108.01,240.78-240.78S388.77,15.22,256,15.22Z" fill="#e0e0d1" style="fill:#e0e0d1;" id="__0_"/>
  <path d="M403.9,107.77c-4.05-4.05-8.41-8.05-12.97-11.9l-108.89,62.86,183.67,106.03c.1-2.53.15-4.98.15-7.37,0-56.51-22.01-109.65-61.97-149.61Z" fill="#4f5d73" style="fill:#4f5d73;" id="__1_"/>
  <path d="M182.73,58.24v125.77l183.69-106.04c-33.6-21.07-72.25-32.18-112.14-32.18" fill="#4f5d73" style="fill:#4f5d73;" id="__1_"/>
  <path d="M154.98,70.52c-18.56,9.87-35.47,22.37-50.34,37.24-30.77,30.78-51,69.46-58.61,111.97l108.95,62.91V70.52" fill="#4f5d73" style="fill:#4f5d73;" id="__1_"/>
  <path d="M42.84,249.95c-.1,2.54-.15,5.01-.15,7.43,0,56.51,22.01,109.65,61.96,149.61,4.01,4.01,8.37,8,12.98,11.89l108.87-62.86L42.84,249.95Z" fill="#4f5d73" style="fill:#4f5d73;" id="__1_"/>
  <path d="M325.88,456.49v-125.78l-183.74,106.07" fill="#4f5d73" style="fill:#4f5d73;" id="__1_"/>
  <path d="M353.64,444.19c18.51-9.85,35.39-22.34,50.26-37.2,30.76-30.78,51-69.48,58.63-112.03l-108.93-62.91v67.77h.04v144.36" fill="#4f5d73" style="fill:#4f5d73;" id="__1_"/>
</svg>
